<?xml version="1.0" encoding="utf-8"?>
<!-- Generator: Adobe Illustrator 23.1.1, SVG Export Plug-In . SVG Version: 6.00 Build 0)  -->
<svg version="1.1" id="Layer_1" xmlns="http://www.w3.org/2000/svg" xmlns:xlink="http://www.w3.org/1999/xlink" x="0px" y="0px"
	 viewBox="0 0 816.75 236.29" style="enable-background:new 0 0 816.75 236.29;" xml:space="preserve">
<g>
	<path d="M185.71,134.92c1.48-2.97,2.39-4.28,2.72-3.96c0.16,0.17-0.04,0.95-0.62,2.35c-0.58,1.4-1.32,3.13-2.23,5.19
		c-0.91,2.06-1.9,4.2-2.97,6.43c-1.07,2.22-2.1,4.24-3.09,6.06c-4.78,9.56-9.35,17.84-13.72,24.84
		c-4.37,7.01-8.77,13.22-13.22,18.66c-0.99,1.15-2.06,2.47-3.21,3.95c-1.16,1.48-2.14,2.72-2.97,3.71c-0.99,1.15-2.1,2.43-3.34,3.83
		c-1.24,1.4-2.51,2.76-3.83,4.08c-1.32,1.32-2.6,2.51-3.83,3.58c-1.24,1.07-2.35,1.85-3.34,2.35c-0.83,0.49-1.69,0.99-2.6,1.48
		c-0.91,0.49-1.69,0.82-2.35,0.99c-1.16,0.33-2.84,0.53-5.07,0.62c-2.22,0.08-3.83-0.04-4.82-0.37c-4.29-1.32-6.92-4.86-7.91-10.63
		c-0.99-5.77-0.33-14.34,1.98-25.71c0.66-2.97,1.61-6.92,2.84-11.87s2.43-9.23,3.58-12.85c1.15-3.79,2.68-8.24,4.57-13.35
		c1.89-5.11,4.04-10.59,6.43-16.44c2.39-5.85,4.9-11.9,7.54-18.17c2.63-6.26,5.35-12.44,8.16-18.54c0.66-1.32,1.27-2.6,1.85-3.83
		c0.58-1.24,1.03-2.26,1.36-3.09c0.49-0.99,0.9-1.98,1.24-2.97c-0.17-0.16-1.32,0.33-3.46,1.48c-2.64,1.32-5.15,2.27-7.54,2.84
		c-2.39,0.58-5.65,1.28-9.76,2.1c-4.12,0.66-8.12,1.16-11.99,1.48c-3.87,0.33-7.54,0.49-11,0.49c-1.16,0-2.47,0-3.96,0
		c-1.48,0-2.72,0.09-3.71,0.25l-3.21,0.25l-6.67,17.3c-1.98,4.94-3.63,9.11-4.94,12.48c-1.32,3.38-2.51,6.35-3.58,8.9
		c-1.07,2.56-2.06,4.82-2.97,6.8c-0.91,1.98-1.85,3.95-2.84,5.93c-2.31,4.62-4.82,9.15-7.54,13.6c-2.72,4.45-5.48,8.53-8.28,12.24
		c-2.8,3.71-5.56,6.92-8.28,9.64c-2.72,2.72-5.15,4.66-7.29,5.81c-2.31,1.32-5.48,2.68-9.52,4.08c-4.04,1.4-8.45,2.68-13.22,3.83
		c-6.76,1.48-10.63,1.15-11.62-0.99c-0.49-0.66-0.25-0.99,0.74-0.99c0.66,0,1.32,0.33,1.98,0.99c0.66,0.66,1.69,0.95,3.09,0.87
		c1.4-0.08,3.99-0.7,7.79-1.85c3.13-0.99,5.89-1.85,8.28-2.6c2.39-0.74,4.49-1.56,6.3-2.47c1.81-0.9,3.46-1.85,4.94-2.84
		c1.48-0.99,2.88-2.14,4.2-3.46c0.82-0.66,1.85-1.73,3.09-3.21c1.24-1.48,2.51-3.05,3.83-4.7c1.32-1.65,2.63-3.34,3.96-5.07
		c1.32-1.73,2.47-3.25,3.46-4.57c0.99-1.48,2.14-3.34,3.46-5.56c1.32-2.23,2.63-4.53,3.96-6.92c1.32-2.39,2.6-4.78,3.83-7.17
		c1.24-2.39,2.26-4.49,3.09-6.3c0.66-1.81,1.93-5.07,3.83-9.76c1.89-4.7,3.83-9.52,5.81-14.46c1.98-4.94,4.36-11.29,7.17-19.03
		c-0.17-0.33-1.61-0.21-4.33,0.37c-2.72,0.58-5.15,1.2-7.29,1.85c-3.13,0.83-6.14,2.06-9.02,3.71c-2.89,1.65-5.81,3.87-8.78,6.67
		c-2.8,2.47-5.07,5.19-6.8,8.16c-1.73,2.97-2.35,5.03-1.85,6.18c0.33,0.49,0.16,0.66-0.49,0.49c-0.83,0-1.2-0.53-1.11-1.61
		c0.08-1.07,0.49-2.35,1.24-3.83c0.74-1.48,1.73-3.05,2.97-4.7c1.24-1.65,2.6-3.13,4.08-4.45c1.81-1.81,3.96-3.58,6.43-5.31
		c2.47-1.73,4.61-3,6.43-3.83c1.65-0.82,3.99-1.65,7.04-2.47c3.05-0.82,5.97-1.4,8.78-1.73l3.21-0.49l3.71-10.13
		c2.47-6.59,4.49-12.07,6.06-16.44c1.56-4.36,2.88-8.16,3.96-11.37c1.07-3.21,2.02-6.1,2.84-8.65c0.82-2.55,1.65-5.23,2.47-8.03
		c1.32-4.61,2.43-8.36,3.34-11.25c0.9-2.88,1.69-4.98,2.35-6.3c0.66-1.32,0.82-1.98,0.49-1.98c-0.17,0.33-0.41,0.66-0.74,0.99
		c-0.33,0.33-0.66,0.66-0.99,0.99c-0.33,0.33-0.66,0.74-0.99,1.24c-2.97,3.79-6.35,7.58-10.13,11.37
		c-3.79,3.79-7.33,6.92-10.63,9.39c-4.29,2.97-9.23,5.36-14.83,7.17c-5.6,1.82-12.61,3.21-21.01,4.2c-1.32,0.17-2.89,0.37-4.7,0.62
		c-1.82,0.25-3.63,0.54-5.44,0.87c-1.82,0.33-3.5,0.62-5.07,0.86c-1.57,0.25-2.76,0.46-3.58,0.62c-1.82,0.49-4.04,1.24-6.67,2.23
		c-2.64,0.99-5.19,2.14-7.66,3.46c-2.31,1.16-4.49,2.56-6.55,4.2c-2.06,1.65-3.5,3.21-4.33,4.7c-0.83,0.99-1.53,2.35-2.1,4.08
		c-0.58,1.73-0.95,3.01-1.11,3.83c0,0.83-0.12,1.24-0.37,1.24s-0.54-0.41-0.87-1.24c-0.33-0.66-0.25-1.65,0.25-2.97
		c1.98-6.76,7.5-12.03,16.56-15.82c2.14-0.99,4.16-1.81,6.06-2.47c1.89-0.66,3.96-1.27,6.18-1.85c2.23-0.58,4.86-1.11,7.91-1.61
		c3.05-0.49,6.71-0.99,11-1.48c8.9-1.32,15.94-2.8,21.13-4.45c5.19-1.65,10.01-4.12,14.46-7.42c0.82-0.49,2.02-1.44,3.58-2.84
		c1.56-1.4,3.09-2.76,4.57-4.08c6.76-6.26,12.69-13.43,17.8-21.51c0.82-1.32,1.44-2.18,1.85-2.6c0.41-0.41,0.87-0.7,1.36-0.87
		c0.82,0,1.15,0.33,0.99,0.99c-0.17,0.66-0.91,2.89-2.22,6.67c-0.66,1.82-1.24,3.46-1.73,4.94c-0.49,1.48-0.99,3.05-1.48,4.7
		c-0.49,1.65-1.07,3.5-1.73,5.56c-0.66,2.06-1.4,4.57-2.22,7.54c-1.32,4.78-2.97,10.18-4.94,16.19c-1.98,6.02-4.86,14.05-8.65,24.1
		c-1.32,3.3-2.35,6.1-3.09,8.4c-0.74,2.31-1.11,3.55-1.11,3.71c4.78-0.16,8.73-0.29,11.87-0.37c3.13-0.08,6.14-0.21,9.02-0.37
		c2.88-0.16,4.82-0.33,5.81-0.49c3.13-0.49,5.81-0.9,8.03-1.24c2.23-0.33,4.24-0.74,6.06-1.24c1.81-0.49,3.5-1.07,5.07-1.73
		c1.56-0.66,3.25-1.4,5.07-2.23l4.2-2.22l1.24-2.72c0.49-0.82,1.24-2.39,2.23-4.7c0.99-2.31,2.06-4.61,3.21-6.92
		c5.93-12.85,11.37-23.56,16.31-32.13c4.94-8.57,9.06-14.25,12.36-17.06c2.31-1.98,4.28-3.09,5.93-3.34
		c1.65-0.25,2.8,0.54,3.46,2.35c0.33,0.99,0.41,2.19,0.25,3.58c-0.17,1.4-0.66,3.42-1.48,6.06c-1.98,6.59-4.57,12.69-7.79,18.29
		c-3.21,5.6-7.38,11.46-12.48,17.55c-1.16,1.32-2.47,2.8-3.96,4.45c-1.48,1.65-2.97,3.21-4.45,4.7c-1.48,1.48-2.93,2.8-4.33,3.96
		c-1.4,1.15-2.6,2.06-3.58,2.72l-2.47,1.73l-5.19,11.12c-11.86,26.7-20.76,49.03-26.7,66.99c-5.93,17.96-9.23,32.71-9.89,44.25
		c-0.66,11.37,2.14,17.38,8.4,18.04c3.62,0.33,7.42-0.95,11.37-3.83c3.95-2.88,9.06-8.2,15.33-15.94c1.98-2.47,3.66-4.65,5.07-6.55
		c1.4-1.89,2.72-3.67,3.95-5.31c1.24-1.65,2.39-3.29,3.46-4.94c1.07-1.65,2.26-3.54,3.58-5.68c1.65-2.47,3.46-5.44,5.44-8.9
		c1.98-3.46,3.99-7.08,6.06-10.88c2.06-3.79,3.99-7.54,5.81-11.25C182.83,141.23,184.39,137.89,185.71,134.92z M155.55,74.86
		c-0.49,0.99,0.74,0.33,3.71-1.98c1.48-1.15,3.13-2.68,4.94-4.57c1.81-1.89,3.67-3.91,5.56-6.06c1.89-2.14,3.71-4.33,5.44-6.55
		c1.73-2.22,3.25-4.24,4.57-6.06c1.65-2.47,3.25-5.15,4.82-8.03c1.56-2.88,2.97-5.77,4.2-8.65c1.24-2.88,2.23-5.56,2.97-8.03
		c0.74-2.47,1.19-4.53,1.36-6.18c0-3.62-0.66-5.44-1.98-5.44c-0.66,0-2.1,1.2-4.33,3.58c-2.22,2.39-4.08,4.74-5.56,7.05
		c-2.97,4.78-6.35,10.84-10.13,18.17c-3.79,7.33-7.75,15.53-11.87,24.6L155.55,74.86z"/>
	<path d="M216.36,132.45c0.99-0.49,1.85-0.78,2.6-0.87c0.74-0.08,0.2,0.46-1.61,1.61c-1.98,1.32-4.45,1.98-7.42,1.98
		c-2.97,0-5.52-1.65-7.66-4.94c-1.16-1.32-1.73-2.06-1.73-2.23c0.16,1.32-0.04,3.38-0.62,6.18c-0.58,2.8-1.2,4.86-1.85,6.18
		c-1.48,3.46-3.42,6.55-5.81,9.27c-2.39,2.72-4.49,4-6.3,3.83c-0.16,0-0.53-0.12-1.11-0.37c-0.58-0.25-1.11-0.87-1.61-1.85
		c-0.99-2.14-1.15-4.82-0.49-8.03c0.66-3.21,1.69-6.38,3.09-9.52c1.4-3.13,2.97-5.81,4.7-8.03c1.73-2.22,3.34-3.42,4.82-3.58
		c2.31-0.16,4.7,1.73,7.17,5.69c2.31,3.79,4.49,5.85,6.55,6.18C211.13,134.27,213.56,133.77,216.36,132.45z M197.82,137.15
		c0.49-1.81,0.82-3.25,0.99-4.33c0.16-1.07,0.25-2.1,0.25-3.09c-0.17-1.32-0.41-2.6-0.74-3.83c-0.33-1.24-0.66-1.85-0.99-1.85
		c-0.49,0-1.32,0.66-2.47,1.98c-1.16,1.32-2.22,2.89-3.21,4.7c-2.8,4.29-4.74,8.32-5.81,12.11c-1.07,3.79-1.19,6.59-0.37,8.4
		c0.33,0.83,0.82,1.2,1.48,1.11c0.66-0.08,1.73-0.78,3.21-2.1c1.81-1.81,3.34-3.71,4.57-5.69
		C195.97,142.59,197,140.11,197.82,137.15z"/>
	<path d="M254.18,132.08c-0.49,0.91-2.22,3.5-5.19,7.79c-0.66,0.99-1.53,2.43-2.6,4.33c-1.07,1.9-2.23,3.83-3.46,5.81
		c-1.24,1.98-2.39,3.87-3.46,5.68c-1.07,1.82-1.94,3.3-2.6,4.45c-3.79,6.1-7.46,11.46-11,16.07c-3.55,4.62-6.47,7.83-8.78,9.64
		c-3.13,2.31-5.77,2.72-7.91,1.24c-1.48-0.99-2.18-3.83-2.1-8.53c0.09-4.7,0.7-10.3,1.85-16.81c1.16-6.51,2.76-13.51,4.82-21.01
		c2.06-7.5,4.41-14.62,7.05-21.38c3.13-7.91,5.93-14.79,8.4-20.64c2.47-5.85,4.78-11.12,6.92-15.82c2.14-4.7,4.2-8.94,6.18-12.73
		c1.98-3.79,3.96-7.5,5.93-11.12c8.4-14.17,14.34-21.26,17.8-21.26c1.48,0,2.14,1.16,1.98,3.46c-0.33,1.32-0.95,3.26-1.85,5.81
		c-0.91,2.56-1.98,5.36-3.21,8.4c-1.24,3.05-2.56,6.1-3.96,9.15c-1.4,3.05-2.76,5.65-4.08,7.79c-3.63,6.26-7.58,12.65-11.87,19.16
		c-4.29,6.51-8.4,12.15-12.36,16.93l-4.2,5.19l-4.45,11.87c-2.14,5.6-4.08,11.74-5.81,18.42c-1.73,6.67-3.13,12.98-4.2,18.91
		c-1.07,5.93-1.69,11.08-1.85,15.45c-0.16,4.37,0.25,6.96,1.24,7.79c0.49,0.33,0.87,0.54,1.11,0.62c0.25,0.09,0.78-0.12,1.61-0.62
		c0.99-0.49,2.22-1.52,3.71-3.09c1.48-1.56,3.09-3.38,4.82-5.44c1.73-2.06,3.5-4.36,5.31-6.92c1.81-2.55,3.54-5.07,5.19-7.54
		c2.14-3.46,4.41-7.04,6.8-10.75c2.39-3.71,4.61-7.17,6.67-10.38c2.06-3.21,3.79-5.85,5.19-7.91c1.4-2.06,2.18-3.09,2.35-3.09
		C254.68,130.81,254.68,131.18,254.18,132.08z M228.23,109.71l1.48-1.73l6.67-8.65c1.48-1.98,3.09-4.33,4.82-7.05
		c1.73-2.72,3.46-5.44,5.19-8.16c1.73-2.72,3.34-5.27,4.82-7.66c1.48-2.39,2.63-4.41,3.46-6.06c1.65-3.13,3.21-6.34,4.7-9.64
		c1.48-3.29,2.72-6.51,3.71-9.64c4.45-12.36,4.04-15.08-1.24-8.16c-4.78,5.93-9.73,13.84-14.83,23.73
		c-5.11,9.89-10.63,22.25-16.56,37.08L228.23,109.71z"/>
	<path d="M291.01,132.08c-0.49,0.91-2.22,3.5-5.19,7.79c-0.66,0.99-1.53,2.43-2.6,4.33c-1.07,1.9-2.23,3.83-3.46,5.81
		c-1.24,1.98-2.39,3.87-3.46,5.68c-1.07,1.82-1.94,3.3-2.6,4.45c-3.79,6.1-7.46,11.46-11,16.07c-3.55,4.62-6.47,7.83-8.78,9.64
		c-3.13,2.31-5.77,2.72-7.91,1.24c-1.48-0.99-2.18-3.83-2.1-8.53c0.09-4.7,0.7-10.3,1.85-16.81c1.16-6.51,2.76-13.51,4.82-21.01
		c2.06-7.5,4.41-14.62,7.05-21.38c3.13-7.91,5.93-14.79,8.4-20.64c2.47-5.85,4.78-11.12,6.92-15.82c2.14-4.7,4.2-8.94,6.18-12.73
		c1.98-3.79,3.96-7.5,5.93-11.12c8.4-14.17,14.34-21.26,17.8-21.26c1.48,0,2.14,1.16,1.98,3.46c-0.33,1.32-0.95,3.26-1.85,5.81
		c-0.91,2.56-1.98,5.36-3.21,8.4c-1.24,3.05-2.56,6.1-3.96,9.15c-1.4,3.05-2.76,5.65-4.08,7.79c-3.63,6.26-7.58,12.65-11.87,19.16
		c-4.29,6.51-8.4,12.15-12.36,16.93l-4.2,5.19l-4.45,11.87c-2.14,5.6-4.08,11.74-5.81,18.42c-1.73,6.67-3.13,12.98-4.2,18.91
		c-1.07,5.93-1.69,11.08-1.85,15.45c-0.16,4.37,0.25,6.96,1.24,7.79c0.49,0.33,0.87,0.54,1.11,0.62c0.25,0.09,0.78-0.12,1.61-0.62
		c0.99-0.49,2.22-1.52,3.71-3.09c1.48-1.56,3.09-3.38,4.82-5.44c1.73-2.06,3.5-4.36,5.31-6.92c1.81-2.55,3.54-5.07,5.19-7.54
		c2.14-3.46,4.41-7.04,6.8-10.75c2.39-3.71,4.61-7.17,6.67-10.38c2.06-3.21,3.79-5.85,5.19-7.91c1.4-2.06,2.18-3.09,2.35-3.09
		C291.5,130.81,291.5,131.18,291.01,132.08z M265.05,109.71l1.48-1.73l6.67-8.65c1.48-1.98,3.09-4.33,4.82-7.05
		c1.73-2.72,3.46-5.44,5.19-8.16c1.73-2.72,3.34-5.27,4.82-7.66c1.48-2.39,2.63-4.41,3.46-6.06c1.65-3.13,3.21-6.34,4.7-9.64
		c1.48-3.29,2.72-6.51,3.71-9.64c4.45-12.36,4.04-15.08-1.24-8.16c-4.78,5.93-9.73,13.84-14.83,23.73
		c-5.11,9.89-10.63,22.25-16.56,37.08L265.05,109.71z"/>
	<path d="M287.79,151.48c-0.82-0.66-1.32-1.65-1.48-2.97c-0.33-1.98,0.09-5.11,1.24-9.39c1.16-4.28,2.8-8.81,4.94-13.6
		c1.32-2.8,2.18-4.49,2.6-5.07c0.41-0.58,1.03-0.86,1.85-0.86c0.82,0,1.07,0.33,0.74,0.99c-1.32,2.31-2.68,5.19-4.08,8.65
		c-1.4,3.46-2.76,7.58-4.08,12.36c-0.16,0.66-0.33,1.44-0.49,2.35c-0.16,0.91-0.25,1.77-0.25,2.6c0,4.29,1.36,5.77,4.08,4.45
		c2.72-1.32,6.96-5.6,12.73-12.85c1.32-1.48,2.47-2.88,3.46-4.2c0.99-1.32,1.56-1.98,1.73-1.98c0.33,0,0.29,0.33-0.12,0.99
		c-0.41,0.66-1.61,2.31-3.58,4.94c-2.47,3.3-4.82,6.1-7.05,8.4c-2.22,2.31-4,3.87-5.31,4.7c-1.32,0.83-2.64,1.32-3.96,1.48
		C289.44,152.64,288.45,152.31,287.79,151.48z M301.14,113.42c0,0.66-0.41,0.99-1.24,0.99c-0.83,0-1.24-0.33-1.24-0.99
		c0-0.82,0.41-1.24,1.24-1.24C300.73,112.18,301.14,112.59,301.14,113.42z"/>
	<path d="M342.17,131.96c0.33,0.66-2.89,4.2-9.64,10.63c-2.47,2.47-4.57,4.45-6.3,5.93c-1.73,1.48-3.21,2.64-4.45,3.46
		c-1.24,0.83-2.43,1.4-3.58,1.73c-1.15,0.33-2.39,0.49-3.71,0.49c-1.98,0.17-3.55-0.08-4.7-0.74c-0.99-0.49-1.73-0.99-2.22-1.48
		c-0.49-0.49-0.9-1.4-1.24-2.72c-0.33-1.15-0.37-2.92-0.12-5.31c0.25-2.39,0.78-4.57,1.61-6.55c0.66-1.81,1.77-4.04,3.34-6.67
		c1.56-2.63,2.92-4.53,4.08-5.69c1.98-1.98,4.12-2.97,6.43-2.97c2.63,0,3.87,1.24,3.71,3.71c-0.17,0.83-0.66,1.9-1.48,3.21
		c-0.83,1.32-1.85,2.68-3.09,4.08c-1.24,1.4-2.6,2.76-4.08,4.08c-1.48,1.32-2.97,2.39-4.45,3.21l-1.73,1.24l-0.25,3.46
		c-0.17,4.12,0.66,6.67,2.47,7.66c1.98,0.99,4.61,0.49,7.91-1.48c3.3-1.98,7.99-6.01,14.09-12.11c1.15-1.15,2.26-2.26,3.34-3.34
		c1.07-1.07,1.77-1.85,2.1-2.35C341.34,132.29,342,131.79,342.17,131.96z M311.02,138.63c-0.17,0.83-0.21,1.28-0.12,1.36
		c0.08,0.09,0.37-0.04,0.87-0.37c0.33-0.16,0.9-0.62,1.73-1.36c0.82-0.74,1.73-1.52,2.72-2.35c1.98-1.81,3.66-3.66,5.07-5.56
		c1.4-1.89,2.18-3.34,2.35-4.33c0.33-2.14-0.41-3.21-2.23-3.21c-0.66,0-1.48,0.49-2.47,1.48c-0.99,0.99-1.98,2.23-2.97,3.71
		c-0.99,1.48-1.94,3.17-2.84,5.07C312.22,134.96,311.52,136.82,311.02,138.63z"/>
	<path d="M408.66,131.46c0.33,0,0.49,0.25,0.49,0.74c0,0.49-0.17,0.74-0.49,0.74c-0.33,0.83-0.91,2.14-1.73,3.96
		c-0.83,1.82-1.77,3.83-2.84,6.06c-1.07,2.22-2.22,4.45-3.46,6.67c-1.24,2.23-2.35,4.24-3.34,6.06
		c-5.28,9.23-9.39,15.45-12.36,18.66c-2.97,3.21-5.52,4.16-7.66,2.84c-0.66-0.16-1.4-1.24-2.22-3.21c-0.49-1.32-0.78-2.35-0.87-3.09
		c-0.08-0.74,0.04-2.6,0.37-5.56c0.16-2.63,0.45-5.11,0.86-7.42c0.41-2.31,0.9-4.61,1.48-6.92c0.58-2.31,1.27-4.78,2.1-7.42
		c0.82-2.63,1.89-5.6,3.21-8.9c0-0.49-0.83,0.66-2.47,3.46c-2.64,3.79-5.28,7.04-7.91,9.76c-2.64,2.72-4.78,4.24-6.43,4.57
		c-2.31,0.49-3.75-0.12-4.33-1.85c-0.58-1.73-0.53-3.99,0.12-6.8c0.66-2.8,1.94-5.81,3.83-9.02c1.89-3.21,4.24-6.14,7.05-8.78
		c1.65-1.48,3.05-2.51,4.2-3.09c1.15-0.58,2.39-0.86,3.71-0.86c2.14,0,3.54,1.24,4.2,3.71l0.25,1.98l1.48-2.47
		c0.66-1.32,1.27-2.14,1.85-2.47c0.58-0.33,0.95-0.08,1.11,0.74c0.16,0.17-0.09,1.32-0.74,3.46c-0.66,2.14-1.48,4.7-2.47,7.66
		c-4.29,12.36-6.96,21.8-8.03,28.3c-1.07,6.51-0.87,10.84,0.62,12.98c0.49,0.49,0.82,0.74,0.99,0.74c0.16,0,0.58-0.16,1.24-0.49
		c2.97-1.32,7.5-7.08,13.6-17.3c1.15-1.81,2.35-3.87,3.58-6.18c1.24-2.31,2.39-4.57,3.46-6.8c1.07-2.22,2.1-4.28,3.09-6.18
		c0.99-1.89,1.73-3.5,2.22-4.82C407.59,132.62,408.33,131.46,408.66,131.46z M382.95,130.23l-0.49-2.47
		c-0.33-1.32-0.74-2.39-1.24-3.21c-0.49-0.82-0.91-1.24-1.24-1.24c-0.49,0-1.2,0.37-2.1,1.11c-0.91,0.74-1.94,1.73-3.09,2.97
		c-1.15,1.24-2.27,2.6-3.34,4.08c-1.07,1.48-2.02,2.88-2.84,4.2c-1.82,2.8-3.21,5.73-4.2,8.78c-0.99,3.05-1.24,5.15-0.74,6.3
		c0.33,0.99,1.16,1.16,2.47,0.49c1.81-0.82,4.04-2.8,6.67-5.93c2.63-3.13,5.11-6.59,7.42-10.38L382.95,130.23z"/>
	<path d="M426.95,128c1.81-4.28,3.05-7.37,3.71-9.27c0.66-1.89,0.82-3,0.49-3.34c-0.33-0.16-1.4,0.66-3.21,2.47
		c-1.82,1.82-3.87,4.16-6.18,7.04c-2.31,2.89-4.62,5.89-6.92,9.02c-2.31,3.13-4.12,5.77-5.44,7.91c-0.49,0.99-1.11,2.02-1.85,3.09
		c-0.74,1.07-1.28,2.02-1.61,2.84c-0.66,0.83-1.07,1.82-1.24,2.97c-0.16,1.16-0.66,1.73-1.48,1.73c-0.82,0-1.24-0.37-1.24-1.11
		c0-0.74,0.25-2.51,0.74-5.31c0.17-1.15,0.49-2.72,0.99-4.7c0.49-1.98,1.07-3.99,1.73-6.06c0.66-2.06,1.27-4.04,1.85-5.93
		c0.58-1.89,1.11-3.34,1.61-4.33c0.82-1.81,1.4-3,1.73-3.58c0.33-0.58,0.9-1.03,1.73-1.36c1.15,0,1.65,0.49,1.48,1.48l-6.67,19.78
		c-0.33,0.83-0.41,1.2-0.25,1.11c0.16-0.08,0.66-0.7,1.48-1.85c0.99-1.65,2.35-3.67,4.08-6.06c1.73-2.39,3.5-4.74,5.31-7.05
		c1.81-2.31,3.58-4.45,5.31-6.43c1.73-1.98,3.17-3.46,4.33-4.45c1.32-1.15,2.22-1.89,2.72-2.23c0.49-0.33,1.07-0.49,1.73-0.49
		c0.99,0,1.56,0.49,1.73,1.48c0.33,1.15,0.25,2.64-0.25,4.45c-0.49,1.82-1.65,4.86-3.46,9.15c-2.64,6.26-4.57,11.04-5.81,14.34
		c-1.24,3.3-2.1,5.77-2.6,7.42c-0.49,1.82-0.41,3.09,0.25,3.83c0.66,0.74,1.24,1.03,1.73,0.87c1.15-0.49,2.63-1.52,4.45-3.09
		c1.81-1.56,3.75-3.34,5.81-5.31c2.06-1.98,4.16-4.12,6.3-6.43c2.14-2.31,4.12-4.45,5.93-6.43c0.82-0.99,1.32-1.73,1.48-2.22
		c0.16-0.49,0.41-0.74,0.74-0.74c0.66,0,0.08,1.24-1.73,3.71c-2.31,3.3-5.28,6.72-8.9,10.26c-3.63,3.55-6.59,6.39-8.9,8.53
		c-1.82,1.48-3.46,2.56-4.94,3.21c-1.48,0.66-2.8,0.58-3.96-0.25c-0.66-0.49-1.07-1.27-1.24-2.35c-0.17-1.07,0-2.68,0.49-4.82
		c0.49-2.14,1.36-4.94,2.6-8.4C422.87,137.64,424.64,133.28,426.95,128z"/>
	<path d="M467,136.9c-0.66,4.78-1.03,8.49-1.11,11.12c-0.08,2.64,0.12,5.11,0.62,7.42c0.33,1.82,0.82,3.38,1.48,4.7
		c0.66,1.32,1.4,2.23,2.22,2.72c0.66,0.33,1.15,0.49,1.48,0.49c0.33,0,0.9-0.16,1.73-0.49c2.31-1.15,4.82-3.34,7.54-6.55
		c2.72-3.21,5.23-6.55,7.54-10.01c2.31-3.46,4.28-6.59,5.93-9.39c1.65-2.8,2.47-4.36,2.47-4.7c0-0.33,0.33-0.49,0.99-0.49
		c0.33,0,0.41,0.17,0.25,0.49c-0.17,0.33-0.66,1.32-1.48,2.97c-1.48,2.8-3.18,5.73-5.07,8.77c-1.9,3.05-3.83,5.85-5.81,8.4
		c-1.98,2.56-3.92,4.82-5.81,6.8c-1.9,1.98-3.58,3.38-5.07,4.2c-2.47,1.48-4.86,1.48-7.17,0c-3.96-2.8-5.44-10.05-4.45-21.75
		l0.49-7.42l-3.71,5.19c-6.43,8.9-11.21,13.35-14.34,13.35c-0.99,0-1.65-0.12-1.98-0.37c-0.33-0.25-0.66-0.78-0.99-1.61
		c-0.33-0.99-0.33-2.84,0-5.56c0.33-2.72,0.91-5.23,1.73-7.54c0.83-2.14,2.14-4.65,3.96-7.54c1.81-2.88,3.29-4.9,4.45-6.06
		c1.32-1.32,2.76-2.35,4.33-3.09c1.56-0.74,2.92-1.11,4.08-1.11c0.82,0,1.69,0.37,2.6,1.11c0.9,0.74,1.52,1.53,1.85,2.35
		c0.16-0.33,0.37-1.24,0.62-2.72c0.25-1.48,0.53-2.97,0.87-4.45c0.99-4.94,2.35-10.26,4.08-15.94c1.73-5.69,3.71-11.53,5.93-17.55
		c2.22-6.01,4.7-12.03,7.42-18.04c2.72-6.01,5.56-11.9,8.53-17.67c3.95-7.74,7.13-13.55,9.52-17.43c2.39-3.87,4.57-6.71,6.55-8.53
		c0.99-0.99,1.69-1.61,2.1-1.85c0.41-0.25,0.95-0.37,1.61-0.37c1.98,0.17,2.72,2.39,2.22,6.67c-0.17,4.78-2.06,12.11-5.69,22
		c-1.48,4.45-3.63,9.73-6.43,15.82c-2.81,6.1-5.89,12.48-9.27,19.16c-3.38,6.67-6.88,13.31-10.51,19.9
		c-3.63,6.59-7.09,12.53-10.38,17.8l-4.7,7.66L467,136.9z M465.02,125.78c-0.33-0.82-0.78-1.73-1.36-2.72
		c-0.58-0.99-1.36-1.48-2.35-1.48c-1.32,0-2.97,1.07-4.94,3.21c-1.98,2.14-3.95,4.86-5.93,8.16c-1.98,3.3-3.46,6.64-4.45,10.01
		c-0.99,3.38-1.24,5.98-0.74,7.79c0.17,0.83,0.49,1.16,0.99,0.99c0.49-0.16,1.4-0.74,2.72-1.73c1.32-0.99,2.63-2.23,3.96-3.71
		c1.32-1.48,3.13-3.79,5.44-6.92c1.48-1.98,2.63-3.58,3.46-4.82c0.82-1.24,1.44-2.35,1.85-3.34c0.41-0.99,0.7-1.89,0.87-2.72
		C464.69,127.67,464.85,126.76,465.02,125.78z M471.44,111.93c-1.16,4.78-1.9,8.03-2.22,9.76c-0.33,1.73-0.33,2.43,0,2.1l3.46-5.19
		c2.14-3.46,4.53-7.5,7.17-12.11c2.63-4.61,5.27-9.47,7.91-14.58c2.63-5.11,5.27-10.3,7.91-15.57c2.63-5.27,5.02-10.3,7.17-15.08
		c1.81-3.95,3.46-7.91,4.94-11.87c1.48-3.95,2.72-7.66,3.71-11.12c0.99-3.46,1.69-6.59,2.1-9.39c0.41-2.8,0.53-4.94,0.37-6.43
		c-0.17-1.48-0.46-2.35-0.87-2.6c-0.41-0.25-1.03,0.04-1.85,0.87c-1.65,1.65-3.63,4.41-5.93,8.28c-2.31,3.87-5.44,9.76-9.39,17.67
		c-5.77,11.37-10.71,22.62-14.83,33.74C476.96,91.54,473.75,102.05,471.44,111.93z"/>
	<path d="M692.68,98.83c0.49-0.33,0.9-0.41,1.24-0.25c0.33,0.17,0.08,0.58-0.74,1.24c-1.82,0.99-4.37,2.1-7.66,3.34
		c-3.3,1.24-6.96,2.35-11,3.34c-4.04,0.99-8.24,1.85-12.61,2.6c-4.37,0.74-8.45,1.2-12.24,1.36c-1.82,5.44-3.34,10.01-4.57,13.72
		c-1.24,3.71-2.51,7.5-3.83,11.37c-1.32,3.87-2.31,6.96-2.97,9.27c-1.82,5.77-3.38,10.96-4.7,15.57c-1.32,4.62-2.47,8.94-3.46,12.98
		c-0.99,4.04-1.85,7.91-2.6,11.62c-0.74,3.71-1.44,7.38-2.1,11c-0.83,4.45-1.32,7.54-1.48,9.27c-0.17,1.73-0.25,3.75-0.25,6.06
		c0.16,7.91,1.89,13.6,5.19,17.06c0.82,0.82,1.52,1.19,2.1,1.11c0.58-0.09,1.44-0.54,2.6-1.36c0.99-0.99,1.98-1.48,2.97-1.48
		c0.66,0,0.95,0.12,0.87,0.37c-0.09,0.25-0.62,0.78-1.61,1.61c-2.47,2.31-5.19,2.8-8.16,1.48c-1.82-0.83-3.42-2.64-4.82-5.44
		c-1.4-2.8-2.35-5.93-2.84-9.39c-0.33-2.97-0.41-6.02-0.25-9.15c0.16-3.13,0.74-7.33,1.73-12.61c1.48-8.73,3.75-18.7,6.8-29.91
		c3.05-11.2,6.96-23.73,11.74-37.57l4.45-13.1l0.99-2.97l-5.69-0.49c-2.47-0.33-5.15-0.66-8.03-0.99c-2.88-0.33-6.63-0.9-11.25-1.73
		c-0.83-0.16-1.36-0.12-1.61,0.12c-0.25,0.25-0.78,1.11-1.61,2.6l-6.67,12.61c-5.44,10.38-10.59,18.95-15.45,25.71
		c-4.86,6.76-9.93,12.53-15.2,17.3c-2.81,2.47-4.94,4.2-6.43,5.19c-1.48,0.99-2.89,1.65-4.2,1.98c-2.31,0.49-3.63,0.08-3.96-1.24
		c0.16-0.99,0.58-1.07,1.24-0.25c0.99,1.48,2.88,1.16,5.69-0.99c1.48-0.82,2.06-1.48,1.73-1.98c-0.49-0.33-0.33-0.41,0.49-0.25
		c0.33,0.17,0.78,0.04,1.36-0.37c0.58-0.41,1.69-1.44,3.34-3.09c1.15-0.99,2.43-2.23,3.83-3.71c1.4-1.48,2.51-2.72,3.34-3.71
		c0.99-1.15,2.14-2.6,3.46-4.33c1.32-1.73,2.68-3.58,4.08-5.56c1.4-1.98,2.76-3.96,4.08-5.93c1.32-1.98,2.47-3.79,3.46-5.44
		c0.82-1.32,2.06-3.54,3.71-6.67c1.65-3.13,3.34-6.3,5.07-9.52c1.73-3.21,3.25-6.06,4.57-8.53c1.32-2.47,2.06-3.87,2.23-4.2
		c0-0.49-2.02-1.15-6.06-1.98c-4.04-0.82-9.02-1.73-14.95-2.72c-5.93-0.99-12.2-1.89-18.79-2.72c-6.59-0.82-12.36-1.4-17.3-1.73
		c-4.29-0.33-8.98-0.25-14.09,0.25c-5.11,0.49-9.15,1.32-12.11,2.47c-1.82,0.66-3.92,1.65-6.3,2.97c-2.39,1.32-4.41,2.56-6.06,3.71
		c-1.48,1.15-3.42,3.13-5.81,5.93c-2.39,2.8-4,5.11-4.82,6.92c-0.99,1.82-1.69,3.87-2.1,6.18c-0.41,2.31-0.46,4.62-0.12,6.92
		c0.16,3.46-0.17,4.62-0.99,3.46c-0.33-0.49-0.58-1.32-0.74-2.47c-0.17-1.15-0.25-2.47-0.25-3.96c0-1.48,0.12-2.97,0.37-4.45
		c0.25-1.48,0.62-2.8,1.11-3.96c0.99-2.31,2.6-4.9,4.82-7.79c2.23-2.88,4.49-5.23,6.8-7.05c3.13-2.47,6.51-4.49,10.14-6.06
		c3.62-1.56,7.79-2.68,12.48-3.34c4.7-0.66,10.09-0.86,16.19-0.62c6.1,0.25,13.1,0.87,21.01,1.85c3.96,0.49,7.99,1.03,12.11,1.61
		c4.12,0.58,7.95,1.2,11.49,1.85c3.54,0.66,6.63,1.24,9.27,1.73c2.63,0.49,4.36,0.83,5.19,0.99c0.49,0.33,0.9,0.09,1.24-0.74
		c0.16-0.49,1.48-2.88,3.96-7.17c2.47-4.28,5.27-8.98,8.4-14.09c3.13-5.11,6.06-9.97,8.78-14.58c2.72-4.61,4.49-7.5,5.31-8.65
		c1.98-2.97,4.04-6.01,6.18-9.15c2.14-3.13,4.24-6.14,6.3-9.02c2.06-2.88,4.08-5.56,6.06-8.03c1.98-2.47,3.71-4.53,5.19-6.18
		c2.97-3.29,5.07-5.48,6.3-6.55c1.24-1.07,2.26-1.61,3.09-1.61c0.82,0,1.4,0.29,1.73,0.87c0.33,0.58,0.33,1.77,0,3.58
		c-0.17,0.99-0.7,2.89-1.61,5.69c-0.91,2.8-1.98,6.06-3.21,9.76c-1.24,3.71-2.6,7.62-4.08,11.74c-1.48,4.12-2.97,8-4.45,11.62
		l-6.67,17.55c-0.83,1.98-1.77,4.62-2.84,7.91c-1.07,3.3-2.14,6.47-3.21,9.52c-1.07,3.05-2.27,6.88-3.58,11.49
		c9.39-0.33,17.88-1.61,25.46-3.83C683.44,102.42,689.05,100.48,692.68,98.83z M647.44,104.02c2.31-7.08,4.65-13.88,7.05-20.39
		c2.39-6.51,5.15-13.8,8.28-21.88c5.11-12.69,8.94-22.66,11.49-29.91c2.55-7.25,3.58-10.88,3.09-10.88c-0.33,0-1.57,1.11-3.71,3.34
		c-2.14,2.22-4.2,4.49-6.18,6.8c-0.99,1.32-2.31,3.01-3.96,5.07c-1.65,2.06-3.38,4.37-5.19,6.92c-1.82,2.56-3.67,5.19-5.56,7.91
		c-1.9,2.72-3.58,5.23-5.07,7.54c-1.16,1.82-2.64,4.16-4.45,7.04c-1.82,2.89-3.75,6.06-5.81,9.52c-2.06,3.46-4.16,6.92-6.3,10.38
		c-2.14,3.46-4.04,6.64-5.68,9.52c-1.65,2.88-3.46,6.22-5.44,10.01c0.16,0.17,1.32,0.46,3.46,0.87c2.14,0.41,4.53,0.83,7.17,1.24
		c2.63,0.41,5.19,0.74,7.66,0.99c2.47,0.25,4.2,0.37,5.19,0.37h2.47L647.44,104.02z"/>
	<path d="M676.36,136.9c-0.66,4.78-1.03,8.49-1.11,11.12c-0.08,2.64,0.12,5.11,0.62,7.42c0.33,1.82,0.82,3.38,1.48,4.7
		c0.66,1.32,1.4,2.23,2.22,2.72c0.66,0.33,1.15,0.49,1.48,0.49c0.33,0,0.9-0.16,1.73-0.49c2.31-1.15,4.82-3.34,7.54-6.55
		c2.72-3.21,5.23-6.55,7.54-10.01c2.31-3.46,4.28-6.59,5.93-9.39c1.65-2.8,2.47-4.36,2.47-4.7c0-0.33,0.33-0.49,0.99-0.49
		c0.33,0,0.41,0.17,0.25,0.49c-0.17,0.33-0.66,1.32-1.48,2.97c-1.48,2.8-3.18,5.73-5.07,8.77c-1.9,3.05-3.83,5.85-5.81,8.4
		c-1.98,2.56-3.92,4.82-5.81,6.8c-1.9,1.98-3.58,3.38-5.07,4.2c-2.47,1.48-4.86,1.48-7.17,0c-3.96-2.8-5.44-10.05-4.45-21.75
		l0.49-7.42l-3.71,5.19c-6.43,8.9-11.21,13.35-14.34,13.35c-0.99,0-1.65-0.12-1.98-0.37c-0.33-0.25-0.66-0.78-0.99-1.61
		c-0.33-0.99-0.33-2.84,0-5.56c0.33-2.72,0.91-5.23,1.73-7.54c0.83-2.14,2.14-4.65,3.96-7.54c1.81-2.88,3.29-4.9,4.45-6.06
		c1.32-1.32,2.76-2.35,4.33-3.09c1.56-0.74,2.92-1.11,4.08-1.11c0.82,0,1.69,0.37,2.6,1.11c0.9,0.74,1.52,1.53,1.85,2.35
		c0.16-0.33,0.37-1.24,0.62-2.72c0.25-1.48,0.53-2.97,0.87-4.45c0.99-4.94,2.35-10.26,4.08-15.94c1.73-5.69,3.71-11.53,5.93-17.55
		c2.22-6.01,4.7-12.03,7.42-18.04c2.72-6.01,5.56-11.9,8.53-17.67c3.95-7.74,7.13-13.55,9.52-17.43c2.39-3.87,4.57-6.71,6.55-8.53
		c0.99-0.99,1.69-1.61,2.1-1.85c0.41-0.25,0.95-0.37,1.61-0.37c1.98,0.17,2.72,2.39,2.22,6.67c-0.17,4.78-2.06,12.11-5.69,22
		c-1.48,4.45-3.63,9.73-6.43,15.82c-2.81,6.1-5.89,12.48-9.27,19.16c-3.38,6.67-6.88,13.31-10.51,19.9
		c-3.63,6.59-7.09,12.53-10.38,17.8l-4.7,7.66L676.36,136.9z M674.38,125.78c-0.33-0.82-0.78-1.73-1.36-2.72
		c-0.58-0.99-1.36-1.48-2.35-1.48c-1.32,0-2.97,1.07-4.94,3.21c-1.98,2.14-3.95,4.86-5.93,8.16c-1.98,3.3-3.46,6.64-4.45,10.01
		c-0.99,3.38-1.24,5.98-0.74,7.79c0.17,0.83,0.49,1.16,0.99,0.99c0.49-0.16,1.4-0.74,2.72-1.73c1.32-0.99,2.63-2.23,3.96-3.71
		c1.32-1.48,3.13-3.79,5.44-6.92c1.48-1.98,2.63-3.58,3.46-4.82c0.82-1.24,1.44-2.35,1.85-3.34c0.41-0.99,0.7-1.89,0.87-2.72
		C674.05,127.67,674.21,126.76,674.38,125.78z M680.81,111.93c-1.16,4.78-1.9,8.03-2.22,9.76c-0.33,1.73-0.33,2.43,0,2.1l3.46-5.19
		c2.14-3.46,4.53-7.5,7.17-12.11c2.63-4.61,5.27-9.47,7.91-14.58c2.63-5.11,5.27-10.3,7.91-15.57c2.63-5.27,5.02-10.3,7.17-15.08
		c1.81-3.95,3.46-7.91,4.94-11.87c1.48-3.95,2.72-7.66,3.71-11.12c0.99-3.46,1.69-6.59,2.1-9.39c0.41-2.8,0.53-4.94,0.37-6.43
		c-0.17-1.48-0.46-2.35-0.87-2.6c-0.41-0.25-1.03,0.04-1.85,0.87c-1.65,1.65-3.63,4.41-5.93,8.28c-2.31,3.87-5.44,9.76-9.39,17.67
		c-5.77,11.37-10.71,22.62-14.83,33.74C686.33,91.54,683.11,102.05,680.81,111.93z"/>
	<path d="M748.29,131.46c0.33,0,0.49,0.25,0.49,0.74c0,0.49-0.17,0.74-0.49,0.74c-0.33,0.83-0.91,2.14-1.73,3.96
		c-0.83,1.82-1.77,3.83-2.84,6.06c-1.07,2.22-2.22,4.45-3.46,6.67c-1.24,2.23-2.35,4.24-3.34,6.06
		c-5.28,9.23-9.39,15.45-12.36,18.66c-2.97,3.21-5.52,4.16-7.66,2.84c-0.66-0.16-1.4-1.24-2.22-3.21c-0.49-1.32-0.78-2.35-0.87-3.09
		c-0.08-0.74,0.04-2.6,0.37-5.56c0.16-2.63,0.45-5.11,0.87-7.42c0.41-2.31,0.9-4.61,1.48-6.92c0.58-2.31,1.27-4.78,2.1-7.42
		c0.82-2.63,1.89-5.6,3.21-8.9c0-0.49-0.83,0.66-2.47,3.46c-2.64,3.79-5.28,7.04-7.91,9.76c-2.64,2.72-4.78,4.24-6.43,4.57
		c-2.31,0.49-3.75-0.12-4.33-1.85c-0.58-1.73-0.53-3.99,0.12-6.8c0.66-2.8,1.94-5.81,3.83-9.02c1.89-3.21,4.24-6.14,7.04-8.78
		c1.65-1.48,3.05-2.51,4.2-3.09c1.15-0.58,2.39-0.86,3.71-0.86c2.14,0,3.54,1.24,4.2,3.71l0.25,1.98l1.48-2.47
		c0.66-1.32,1.27-2.14,1.85-2.47c0.58-0.33,0.95-0.08,1.11,0.74c0.16,0.17-0.09,1.32-0.74,3.46c-0.66,2.14-1.48,4.7-2.47,7.66
		c-4.29,12.36-6.96,21.8-8.03,28.3c-1.07,6.51-0.86,10.84,0.62,12.98c0.49,0.49,0.82,0.74,0.99,0.74c0.16,0,0.57-0.16,1.24-0.49
		c2.97-1.32,7.5-7.08,13.6-17.3c1.15-1.81,2.35-3.87,3.58-6.18c1.24-2.31,2.39-4.57,3.46-6.8c1.07-2.22,2.1-4.28,3.09-6.18
		c0.99-1.89,1.73-3.5,2.23-4.82C747.21,132.62,747.96,131.46,748.29,131.46z M722.58,130.23l-0.49-2.47
		c-0.33-1.32-0.74-2.39-1.24-3.21c-0.49-0.82-0.91-1.24-1.24-1.24c-0.49,0-1.2,0.37-2.1,1.11c-0.91,0.74-1.94,1.73-3.09,2.97
		c-1.16,1.24-2.27,2.6-3.34,4.08c-1.07,1.48-2.02,2.88-2.84,4.2c-1.82,2.8-3.21,5.73-4.2,8.78c-0.99,3.05-1.24,5.15-0.74,6.3
		c0.33,0.99,1.16,1.16,2.47,0.49c1.81-0.82,4.04-2.8,6.67-5.93c2.63-3.13,5.11-6.59,7.42-10.38L722.58,130.23z"/>
	<path d="M778.69,162.61c-0.17-0.16-0.37-0.45-0.62-0.86c-0.25-0.41-0.46-0.95-0.62-1.61c-0.33-0.82-0.29-3.09,0.12-6.8
		c0.41-3.71,2.02-9.27,4.82-16.69c3.3-8.4,5.07-14.05,5.32-16.93c0.25-2.88-0.12-4.08-1.11-3.58c-1.16,0.66-2.84,2.23-5.07,4.7
		c-2.23,2.47-4.41,5.11-6.55,7.91c-2.14,2.8-4.04,5.36-5.68,7.66c-1.65,2.31-2.56,3.63-2.72,3.95c-0.33,0.49-0.58,1.07-0.74,1.73
		c-0.17,0.49-0.33,0.95-0.49,1.36c-0.17,0.41-0.25,0.7-0.25,0.87c-0.17,0.83-0.33,1.28-0.49,1.36c-0.17,0.08-0.49,0.12-0.99,0.12
		c-0.17,0-0.33-0.16-0.49-0.49c-0.33-0.49-0.25-1.56,0.25-3.21c0.16-0.99,0.53-2.68,1.11-5.07c0.58-2.39,1.27-4.82,2.1-7.29
		c1.32-4.61,2.14-7.7,2.47-9.27c0.33-1.56,0.16-2.51-0.49-2.84c-0.33-0.16-1.44,0.58-3.34,2.22c-1.9,1.65-3.5,3.38-4.82,5.19
		c-4.12,5.28-7.83,10.63-11.12,16.07c-3.3,5.44-5.35,9.64-6.18,12.61c-0.33,1.32-0.58,2.1-0.74,2.35c-0.16,0.25-0.49,0.37-0.99,0.37
		c-0.82,0-1.24-0.33-1.24-0.99c0-0.66,0.25-2.14,0.74-4.45c0.66-2.47,1.44-5.64,2.35-9.52c0.91-3.87,2.02-7.62,3.34-11.25
		c1.81-5.11,3.17-8.69,4.08-10.75c0.9-2.06,1.93-3.09,3.09-3.09c0.66,0,0.95,0.41,0.86,1.24c-0.08,0.83-0.7,2.64-1.85,5.44
		c-0.49,1.48-1.11,3.26-1.85,5.31c-0.74,2.06-1.4,4.04-1.98,5.93c-0.58,1.9-1.07,3.58-1.48,5.07c-0.41,1.48-0.62,2.31-0.62,2.47
		c0,0.49,0.49,0,1.48-1.48c0.49-0.99,1.32-2.31,2.47-3.95c1.15-1.65,2.35-3.34,3.58-5.07c1.24-1.73,2.39-3.34,3.46-4.82
		c1.07-1.48,1.93-2.63,2.59-3.46c1.65-1.81,3.25-3.34,4.82-4.57c1.56-1.24,2.76-1.85,3.58-1.85c1.32,0,1.94,1.07,1.85,3.21
		c-0.08,2.14-0.37,4.53-0.86,7.17c-0.66,2.97-1.57,6.35-2.72,10.13l4.2-5.93c2.14-2.8,4.41-5.6,6.8-8.4
		c2.39-2.8,4.41-4.86,6.06-6.18c1.15-0.99,1.93-1.61,2.35-1.85c0.41-0.25,1.03-0.29,1.85-0.12c1.15,0.17,1.89,1.4,2.22,3.71
		c0.33,2.31-0.83,6.76-3.46,13.35c-1.48,3.96-2.76,7.71-3.83,11.25c-1.07,3.55-1.9,6.72-2.47,9.52c-0.58,2.8-0.91,5.03-0.99,6.67
		c-0.08,1.65,0.21,2.47,0.87,2.47c0.99,0,2.97-1.61,5.93-4.82c2.97-3.21,5.93-7.05,8.9-11.49l6.92-9.89
		c0.82-1.32,1.56-2.39,2.22-3.21c0.66-0.82,1.07-1.24,1.24-1.24c0.33,0,0.45,0.12,0.37,0.37c-0.09,0.25-0.7,1.2-1.85,2.84
		l-4.94,7.17c-3.79,5.93-7.17,10.75-10.14,14.46c-2.97,3.71-5.36,5.89-7.17,6.55c-0.83,0.33-1.44,0.54-1.85,0.62
		C779.88,163.06,779.35,162.94,778.69,162.61z"/>
</g>
</svg>
